<?xml version="1.0" encoding="UTF-8" standalone="no"?>
<!-- Generator: Adobe Illustrator 27.1.1, SVG Export Plug-In . SVG Version: 6.00 Build 0)  -->

<svg
   version="1.1"
   id="Layer_1"
   x="0px"
   y="0px"
   viewBox="0 0 233.5 359.39999"
   xml:space="preserve"
   sodipodi:docname="schibsted_symbol.svg"
   width="233.5"
   height="359.39999"
   inkscape:version="1.3.2 (091e20e, 2023-11-25)"
   xmlns:inkscape="http://www.inkscape.org/namespaces/inkscape"
   xmlns:sodipodi="http://sodipodi.sourceforge.net/DTD/sodipodi-0.dtd"
   xmlns="http://www.w3.org/2000/svg"
   xmlns:svg="http://www.w3.org/2000/svg"><defs
   id="defs1" /><sodipodi:namedview
   id="namedview1"
   pagecolor="#000000"
   bordercolor="#000000"
   borderopacity="0.25"
   inkscape:showpageshadow="2"
   inkscape:pageopacity="0.0"
   inkscape:pagecheckerboard="0"
   inkscape:deskcolor="#d1d1d1"
   inkscape:zoom="0.41002621"
   inkscape:cx="143.89324"
   inkscape:cy="-358.51367"
   inkscape:window-width="1712"
   inkscape:window-height="953"
   inkscape:window-x="0"
   inkscape:window-y="35"
   inkscape:window-maximized="0"
   inkscape:current-layer="Layer_1" />
<style
   type="text/css"
   id="style1">
	.st0{fill:#FFFFFF;}
</style>
<g
   id="background"
   transform="translate(-359.5,-360.3)">
</g>
<g
   id="symbol"
   transform="translate(-359.5,-360.3)">
	<g
   id="g1">
		<path
   class="st0"
   d="m 398,544.6 c -4.9,0 -8.6,3.7 -8.6,8.6 0,2.2 0.8,4.4 2.3,6 1.9,2.1 7.2,6.7 10.4,9.5 1.9,1.6 4.2,1.9 5.3,1.9 4.9,0 8.6,-3.7 8.6,-8.6 0,-2.3 -1.4,-5.3 -3.3,-6.7 -2.8,-2.1 -7.7,-6.7 -8.8,-7.9 -1.5,-1.6 -4,-2.8 -5.9,-2.8 z m 28.3,22.8 c -4.4,0 -7.7,3.3 -7.7,7.7 0,3.3 1.9,5.6 4.4,7 1.6,0.9 4.9,2.1 7.2,3 1.6,0.7 1.9,0.7 2.3,0.7 5.6,0 8.1,-3.9 8.1,-7.4 0,-3.7 -2.6,-6.5 -4.6,-7.4 -5.8,-2.3 -4.6,-2.1 -6.3,-2.8 -0.8,-0.6 -2.4,-0.8 -3.4,-0.8 z m 28.4,10.5 c -4.4,-0.7 -8.4,1.9 -8.4,6.5 0,1.7 0.6,3.3 1.6,4.6 1.1,1.3 2.5,2.2 4.2,2.6 1.7,0.4 3.4,0.6 5.1,0.7 3.9,0 7,-2.8 7,-6.7 0,-3.3 -2.6,-6.3 -5.8,-7 -1.4,-0.3 -3,-0.5 -3.7,-0.7 z M 417.8,533 c -4.6,0 -8.1,3.5 -8.1,8.1 0,2.8 1.4,5.3 2.6,6.5 1.4,1.4 10.4,8.4 12.3,9.5 1.6,0.9 3.3,1.4 5.1,1.4 4.2,0 7.9,-3.5 7.9,-7.9 0,-3 -1.6,-6 -3.7,-7.4 -3,-1.9 -7.4,-5.3 -10.2,-7.9 -2,-1.6 -3.9,-2.3 -5.9,-2.3 z m 58.5,47.9 c -3.7,0 -6.5,2.8 -6.5,6.5 0,3.7 2.8,6.5 6.5,6.5 3.7,0 6.5,-2.8 6.5,-6.5 0,-3.7 -2.8,-6.5 -6.5,-6.5 z m -24.2,-28.1 c -6,-1.4 -9.8,1.6 -9.8,6.5 0,3.9 2.3,6.7 5.3,7.7 5.1,1.6 7,2.1 8.4,2.1 3.9,0 7.4,-3 7.4,-7.4 0,-3.5 -2.1,-6 -5.8,-7.2 -6.4,-2 -5,-1.7 -5.5,-1.7 z m 24.2,4.4 c -3.7,0 -6.5,2.8 -6.5,6.5 0,3.7 2.8,6.5 6.5,6.5 3.7,0 6.5,-2.8 6.5,-6.5 0,-3.7 -2.8,-6.5 -6.5,-6.5 z m -38.6,-38.3 c -4.2,0 -7.7,3.5 -7.7,7.9 0,2.3 1.4,4.9 3,6.3 3.3,2.8 14.4,9.3 21.4,11.4 0.8,0.3 1.7,0.4 2.6,0.5 1,0 2,-0.2 2.9,-0.6 0.9,-0.4 1.8,-0.9 2.5,-1.7 0.7,-0.7 1.3,-1.6 1.7,-2.5 0.4,-0.9 0.6,-1.9 0.6,-2.9 0,-3.9 -2.8,-6.7 -5.3,-7.7 -6,-2.3 -13,-6 -16.5,-8.8 -1.5,-1.3 -3.3,-2 -5.2,-1.9 z m 38.6,14.6 c -3.7,0 -6.5,2.8 -6.5,6.5 0,3.7 2.8,6.5 6.5,6.5 3.7,0 6.5,-2.8 6.5,-6.5 0,-3.7 -2.8,-6.5 -6.5,-6.5 z m 0.2,-173.2 c -66.9,0 -117,51.3 -117,114.5 0,25.3 8.1,54.1 17,64.8 2.1,2.6 4.4,4.4 7.9,4.4 5.3,0 9.3,-3.9 9.3,-9.3 0,-1.6 -0.7,-3.7 -1.4,-4.9 -2.1,-3 1.4,-5.1 3,-2.3 1.4,2.3 4.6,4.6 8.4,4.6 4.9,0 8.8,-4.2 8.8,-8.8 0,-1.8 -0.5,-3.6 -1.4,-5.1 -2.3,-3.7 1.4,-5.1 2.8,-2.8 1.9,3 5.1,4.9 8.4,4.9 2.4,0 4.7,-1 6.4,-2.7 1.7,-1.7 2.7,-4 2.7,-6.4 0,-1.6 -0.5,-3.5 -1.2,-4.6 -5.1,-9.1 -7.4,-18.3 -7.4,-28.8 0,-33.2 23,-57.1 53.6,-57.1 25.1,0 45,16 51.5,39.7 L 588,440.9 C 573.3,393 530.1,360.3 476.5,360.3 Z m 78,175.1 c 4.9,0 8.6,-3.7 8.6,-8.6 0,-2.2 -0.8,-4.4 -2.3,-6 -1.9,-2.1 -7.2,-6.7 -10.4,-9.5 -1.9,-1.6 -4.2,-1.9 -5.3,-1.9 -4.9,0 -8.6,3.7 -8.6,8.6 0,2.3 1.4,5.3 3.3,6.7 2.8,2.1 7.7,6.7 8.8,7.9 1.5,1.6 4.1,2.8 5.9,2.8 z m -28.3,-22.8 c 4.4,0 7.7,-3.3 7.7,-7.7 0,-3.3 -1.9,-5.6 -4.4,-7 -1.6,-0.9 -4.9,-2.1 -7.2,-3 -1.6,-0.7 -1.9,-0.7 -2.3,-0.7 -5.6,0 -8.1,3.9 -8.1,7.4 0,3.7 2.6,6.5 4.6,7.4 5.8,2.3 4.6,2.1 6.3,2.8 0.8,0.6 2.5,0.8 3.4,0.8 z m -28.3,-10.5 c 4.4,0.7 8.4,-1.9 8.4,-6.5 0,-1.7 -0.6,-3.3 -1.6,-4.6 -1.1,-1.3 -2.5,-2.2 -4.2,-2.6 -1.7,-0.4 -3.4,-0.6 -5.1,-0.7 -3.9,0 -7,2.8 -7,6.7 0,3.3 2.6,6.3 5.8,7 1.3,0.3 3,0.5 3.7,0.7 z m 36.9,44.9 c 4.6,0 8.1,-3.5 8.1,-8.1 0,-2.8 -1.4,-5.3 -2.6,-6.5 -1.4,-1.4 -10.4,-8.4 -12.3,-9.5 -1.6,-0.9 -3.3,-1.4 -5.1,-1.4 -4.2,0 -7.9,3.5 -7.9,7.9 0,3 1.6,6 3.7,7.4 3,1.9 7.4,5.3 10.2,7.9 1.9,1.6 3.8,2.3 5.9,2.3 z m -58.5,-47.9 c 3.7,0 6.5,-2.8 6.5,-6.5 0,-3.7 -2.8,-6.5 -6.5,-6.5 -3.7,0 -6.5,2.8 -6.5,6.5 0,3.7 2.8,6.5 6.5,6.5 z m 24.1,28.1 c 6,1.4 9.8,-1.6 9.8,-6.5 0,-3.9 -2.3,-6.7 -5.3,-7.7 -5.1,-1.6 -7,-2.1 -8.4,-2.1 -3.9,0 -7.4,3 -7.4,7.4 0,3.5 2.1,6 5.8,7.2 6.5,2 5.1,1.7 5.5,1.7 z m -24.1,-4.4 c 3.7,0 6.5,-2.8 6.5,-6.5 0,-3.7 -2.8,-6.5 -6.5,-6.5 -3.7,0 -6.5,2.8 -6.5,6.5 0,3.7 2.8,6.5 6.5,6.5 z m 38.5,38.3 c 4.2,0 7.7,-3.5 7.7,-7.9 0,-2.3 -1.4,-4.9 -3,-6.3 -3.3,-2.8 -14.4,-9.3 -21.4,-11.4 -0.8,-0.3 -1.7,-0.4 -2.6,-0.5 -1,0 -2,0.2 -2.9,0.6 -0.9,0.4 -1.8,0.9 -2.5,1.7 -0.7,0.7 -1.3,1.6 -1.7,2.5 -0.4,0.9 -0.6,1.9 -0.6,2.9 0,3.9 2.8,6.7 5.3,7.7 6,2.3 13,6 16.5,8.8 1.5,1.3 3.3,2 5.2,1.9 z m -38.5,-14.6 c 3.7,0 6.5,-2.8 6.5,-6.5 0,-3.7 -2.8,-6.5 -6.5,-6.5 -3.7,0 -6.5,2.8 -6.5,6.5 0,3.7 2.8,6.5 6.5,6.5 z M 476,719.7 c 66.9,0 117,-51.3 117,-114.5 0,-25.3 -8.1,-54.1 -17,-64.8 -2.1,-2.6 -4.4,-4.4 -7.9,-4.4 -5.3,0 -9.3,3.9 -9.3,9.3 0,1.6 0.7,3.7 1.4,4.9 2.1,3 -1.4,5.1 -3,2.3 -1.4,-2.3 -4.6,-4.6 -8.4,-4.6 -4.9,0 -8.8,4.2 -8.8,8.8 0,1.8 0.5,3.6 1.4,5.1 2.3,3.7 -1.4,5.1 -2.8,2.8 -1.9,-3 -5.1,-4.9 -8.4,-4.9 -2.4,0 -4.7,1 -6.4,2.7 -1.7,1.7 -2.7,4 -2.7,6.4 0,1.6 0.5,3.5 1.2,4.6 5.1,9.1 7.4,18.3 7.4,28.8 0,33.2 -23,57.1 -53.6,57.1 -25.1,0 -45.1,-16 -51.6,-39.7 l -60.1,19.5 c 14.8,47.9 58,80.6 111.6,80.6 z"
   id="path1" />
	</g>
</g>
<g
   id="logotype"
   transform="translate(-359.5,-360.3)">
</g>
<g
   id="Layer_4"
   transform="translate(-359.5,-360.3)">
</g>
</svg>
