<?xml version="1.0" encoding="UTF-8" standalone="no"?>
<!-- Generator: Adobe Illustrator 27.1.1, SVG Export Plug-In . SVG Version: 6.00 Build 0)  -->

<svg
   version="1.1"
   id="Layer_1"
   x="0px"
   y="0px"
   viewBox="0 0 1404.9 257.60001"
   xml:space="preserve"
   sodipodi:docname="schibsted_logotype_white_rgb.svg"
   width="1404.9"
   height="257.60001"
   inkscape:version="1.3.2 (091e20e, 2023-11-25)"
   xmlns:inkscape="http://www.inkscape.org/namespaces/inkscape"
   xmlns:sodipodi="http://sodipodi.sourceforge.net/DTD/sodipodi-0.dtd"
   xmlns="http://www.w3.org/2000/svg"
   xmlns:svg="http://www.w3.org/2000/svg"><defs
   id="defs2" /><sodipodi:namedview
   id="namedview2"
   pagecolor="#000000"
   bordercolor="#000000"
   borderopacity="0.25"
   inkscape:showpageshadow="2"
   inkscape:pageopacity="0.0"
   inkscape:pagecheckerboard="0"
   inkscape:deskcolor="#d1d1d1"
   inkscape:zoom="0.1453125"
   inkscape:cx="705.37634"
   inkscape:cy="123.87097"
   inkscape:window-width="1312"
   inkscape:window-height="449"
   inkscape:window-x="0"
   inkscape:window-y="35"
   inkscape:window-maximized="0"
   inkscape:current-layer="Layer_1" />
<style
   type="text/css"
   id="style1">
	.st0{fill:#FFFFFF;}
</style>
<g
   id="background"
   transform="translate(-257.5,-257.4)">
</g>
<g
   id="symbol"
   transform="translate(-257.5,-257.4)">
	<g
   id="g2">
		<g
   id="g1">
			<path
   class="st0"
   d="m 601.6,461.2 -34.8,-11.8 c -0.4,-0.1 -0.9,0 -1.2,0.2 -0.4,0.2 -0.6,0.6 -0.8,1 -3.8,12 -14.6,25.1 -35.6,25.1 -21.8,0 -41.8,-16 -41.8,-44.4 0,-28.6 19.6,-44.4 41.4,-44.4 18.1,0 28.1,10.1 32.8,21.1 0.2,0.7 1,1.2 1.7,1 l 35.9,-12.5 c 0.7,-0.3 1,-1.2 0.7,-1.8 -8.7,-24.5 -32.3,-47.1 -71.9,-47.1 -45.9,0 -81.2,35.1 -81.2,83.7 0,48.4 35.9,83.7 82.4,83.7 41.1,0 65.7,-26.1 73.2,-52.1 0.1,-0.2 0.1,-0.3 0.1,-0.5 0,-0.2 0,-0.4 -0.1,-0.5 -0.1,-0.2 -0.2,-0.3 -0.3,-0.4 -0.1,-0.2 -0.3,-0.2 -0.5,-0.3 z m 545.6,-47.1 -22.5,-4.7 c -8.8,-1.8 -14.3,-6.2 -14.3,-13.8 0,-9.1 8.8,-15.8 20,-15.8 15.6,0 22.3,8.8 25.1,17.1 0.2,1 1,1.3 1.7,1 l 32,-12.5 c 0.7,-0.3 1,-1 0.8,-1.7 -5.8,-16.3 -22.5,-36.3 -59.9,-36.3 -33.9,0 -58.9,23.3 -58.9,51.7 0,21.8 13.8,40.9 44.3,47.4 l 20.8,5 c 12.3,2.7 17,7.7 17,14.8 0,8.2 -6.6,15.6 -20.8,15.6 -18,0 -27.1,-10.8 -28.6,-22.5 0,-0.8 -0.7,-1.3 -1.8,-1.2 l -33.6,7.5 c -0.7,0.2 -1.3,0.8 -1.3,1.7 2.7,17.8 19.5,47.3 65.7,47.3 41.6,0 61.4,-26.3 61.4,-52.1 -0.2,-22.7 -16,-42.1 -47.1,-48.5 z m 254.9,-66.5 c -40.8,0 -77.7,32.6 -77.7,83 0,53.2 38.1,84.4 81.4,84.4 32.3,0 55.1,-15.6 66.4,-36.9 0.3,-0.8 0,-1.7 -0.7,-2 l -31.8,-13.8 c -0.7,-0.2 -1.5,0 -1.8,0.7 -6,9.1 -16.3,15.3 -31.8,15.3 -21.5,0 -38.9,-15 -39.9,-35.6 H 1478 c 0.7,0 1.3,-0.8 1.3,-1.3 0.3,-2.2 0.7,-7.3 0.7,-12 -0.1,-50.7 -29.3,-81.8 -77.9,-81.8 z m 35.7,65.7 h -70.7 c 1,-14.3 13.3,-30.8 35.4,-30.8 24.4,0 34.7,15.2 35.3,30.8 z m 223.3,-135.4 h -39.9 c -0.7,0 -1.2,0.7 -1.2,1.3 v 89 c -4.3,-8.5 -17.3,-19.6 -44.6,-19.6 -44.4,0 -75.4,36.1 -75.4,82.4 0,47.6 31.8,83 76.7,83 21,0 37.1,-9.6 44.1,-22.1 l 0.2,17 c 0,0.7 0.5,1.2 1.3,1.2 h 38.8 c 0.2,0 0.4,0 0.5,-0.1 0.2,-0.1 0.3,-0.2 0.4,-0.3 0.1,-0.1 0.2,-0.3 0.3,-0.4 0.1,-0.2 0.1,-0.3 0.1,-0.5 V 279.2 c 0,-0.7 -0.6,-1.3 -1.3,-1.3 z M 1581.8,476 c -22.3,0 -38.9,-16.8 -38.9,-45.1 0,-28.3 17.1,-44.8 38.9,-44.8 21.8,0 39.3,16.3 39.3,44.4 -0.1,28.7 -17.5,45.5 -39.3,45.5 z m -276.9,-2.3 c -2.8,0.3 -7.7,0.8 -11.5,0.8 -12.3,0 -18.8,-4.5 -18.8,-18.5 v -65.9 h 30.5 c 0.7,0 1.3,-0.7 1.3,-1.3 v -35.1 c 0,-0.5 -0.7,-1.2 -1.3,-1.2 h -30.5 v -46.1 c 0,-0.2 0,-0.3 -0.1,-0.5 -0.1,-0.2 -0.2,-0.3 -0.3,-0.4 -0.1,-0.1 -0.3,-0.2 -0.4,-0.3 -0.2,-0.1 -0.3,-0.1 -0.5,-0.1 h -39.1 c -1,0 -1.5,0.7 -1.5,1.3 l -0.2,46.1 h -27.1 c -0.8,0 -1.3,0.7 -1.3,1.2 v 35.1 c 0,0.2 0,0.3 0.1,0.5 0.1,0.2 0.2,0.3 0.3,0.4 0.1,0.1 0.3,0.2 0.4,0.3 0.2,0.1 0.3,0.1 0.5,0.1 h 27.1 v 73.4 c 0,30.6 19,48.7 49.8,48.7 11.8,0 19.3,-2 23.3,-3.3 0.5,-0.3 0.8,-0.8 0.8,-1.7 v -32.4 c 0,-0.8 -0.7,-1.4 -1.5,-1.1 z M 976.7,348.3 c -23.5,0 -40.6,10.3 -47.8,21.5 v -90.5 c 0,-0.2 0,-0.3 -0.1,-0.5 -0.1,-0.2 -0.2,-0.3 -0.3,-0.4 -0.1,-0.1 -0.3,-0.2 -0.4,-0.3 -0.2,-0.1 -0.3,-0.1 -0.5,-0.1 h -39.4 c -0.7,0 -1.3,0.7 -1.3,1.3 v 229.4 c 0,0.2 0,0.4 0.1,0.5 0.1,0.2 0.2,0.3 0.3,0.4 0.1,0.1 0.3,0.2 0.4,0.3 0.2,0.1 0.3,0.1 0.5,0.1 H 927 c 0.8,0 1.3,-0.5 1.3,-1.3 v -17.8 c 8.3,13.5 25,23.1 46.7,23.1 45.1,0 74.7,-35.8 74.7,-83.4 0,-46.7 -26.8,-82.3 -73,-82.3 z M 967.8,476 c -21.8,0 -39.9,-16.6 -39.9,-45.1 0,-29 18.1,-45.1 39.9,-45.1 21.8,0 38.8,16.1 38.8,45.1 0,28.8 -17,45.1 -38.8,45.1 z M 849,352.6 h -40 c -0.8,0 -1.3,0.7 -1.3,1.2 v 154.9 c 0,0.8 0.5,1.3 1.3,1.3 h 40 c 0.2,0 0.4,0 0.5,-0.1 0.2,-0.1 0.3,-0.2 0.4,-0.3 0.1,-0.1 0.2,-0.3 0.3,-0.4 0.1,-0.2 0.1,-0.3 0.1,-0.5 v -155 c 0.1,-0.5 -0.6,-1.1 -1.3,-1.1 z M 828.9,274 c -14.5,0 -26.6,11.8 -26.6,26.5 0,14.3 12,26.1 26.5,26.1 15.8,0 28.1,-13.6 26,-29.1 -1.6,-13.1 -12.6,-23.3 -25.9,-23.5 z m -116.6,74.3 c -15,0 -32.6,5.2 -42.6,17.1 v -86.2 c 0,-0.7 -0.7,-1.3 -1.3,-1.3 h -40.1 c -0.2,0 -0.3,0 -0.5,0.1 -0.2,0.1 -0.3,0.2 -0.4,0.3 -0.1,0.1 -0.2,0.3 -0.3,0.4 -0.1,0.2 -0.1,0.3 -0.1,0.5 v 229.4 c 0,0.8 0.5,1.3 1.3,1.3 h 40.1 c 0.2,0 0.3,0 0.5,-0.1 0.2,-0.1 0.3,-0.2 0.4,-0.3 0.1,-0.1 0.2,-0.3 0.3,-0.4 0.1,-0.2 0.1,-0.3 0.1,-0.5 v -91.3 c -0.3,-17.3 9.8,-31.4 29.4,-31.4 20.6,0 29.1,14.6 29.1,32.1 v 90.7 c 0,0.2 0,0.4 0.1,0.5 0.1,0.2 0.2,0.3 0.3,0.4 0.1,0.1 0.3,0.2 0.4,0.3 0.2,0.1 0.3,0.1 0.5,0.1 h 39.8 c 0.8,0 1.3,-0.5 1.3,-1.3 v -97.8 c 0.1,-34.7 -18.2,-62.6 -58.3,-62.6 z m -427.1,41.2 c -3.5,0 -6.2,2.7 -6.2,6.2 0,1.6 0.6,3.1 1.7,4.3 1.3,1.5 5.2,4.8 7.5,6.8 1.3,1.2 3,1.3 3.8,1.3 3.5,0 6.2,-2.7 6.2,-6.2 0,-1.7 -1,-3.8 -2.3,-4.8 -2,-1.5 -5.5,-4.8 -6.3,-5.7 -1.2,-1.1 -3.1,-1.9 -4.4,-1.9 z m 20.3,16.3 c -3.2,0 -5.5,2.3 -5.5,5.5 0,2.3 1.3,4 3.2,5 1.2,0.7 3.5,1.5 5.2,2.2 1.2,0.5 1.3,0.5 1.7,0.5 4,0 5.8,-2.8 5.8,-5.3 0,-2.7 -1.8,-4.7 -3.3,-5.3 -4.2,-1.7 -3.3,-1.5 -4.5,-2 -0.8,-0.4 -1.9,-0.6 -2.6,-0.6 z m 20.3,7.5 c -3.2,-0.5 -6,1.3 -6,4.7 0,1.2 0.4,2.4 1.2,3.3 0.8,0.9 1.8,1.6 3,1.8 1.2,0.3 2.4,0.4 3.7,0.5 2.8,0 5,-2 5,-4.8 0,-2.3 -1.8,-4.5 -4.2,-5 -1,-0.2 -2.2,-0.3 -2.7,-0.5 z m -26.5,-32.1 c -3.3,0 -5.8,2.5 -5.8,5.8 0,2 1,3.8 1.8,4.7 1,1 7.5,6 8.8,6.8 1.1,0.6 2.4,1 3.7,1 3,0 5.7,-2.5 5.7,-5.7 0,-2.2 -1.2,-4.3 -2.7,-5.3 -2.2,-1.3 -5.3,-3.8 -7.3,-5.7 -1.3,-1.1 -2.7,-1.6 -4.2,-1.6 z m 42,34.3 c -2.7,0 -4.7,2 -4.7,4.7 0,2.7 2,4.7 4.7,4.7 2.7,0 4.7,-2 4.7,-4.7 -0.1,-2.7 -2.1,-4.7 -4.7,-4.7 z M 324,395.3 c -4.3,-1 -7,1.2 -7,4.7 0,2.8 1.7,4.8 3.8,5.5 3.7,1.2 5,1.5 6,1.5 2.8,0 5.3,-2.2 5.3,-5.3 0,-2.5 -1.5,-4.3 -4.2,-5.2 -4.6,-1.3 -3.6,-1.2 -3.9,-1.2 z m 17.3,3.2 c -2.7,0 -4.7,2 -4.7,4.7 0,2.7 2,4.7 4.7,4.7 2.7,0 4.7,-2 4.7,-4.7 -0.1,-2.7 -2.1,-4.7 -4.7,-4.7 z M 313.7,371 c -3,0 -5.5,2.5 -5.5,5.7 0,1.7 1,3.5 2.2,4.5 2.3,2 10.3,6.7 15.3,8.2 0.6,0.2 1.2,0.3 1.8,0.3 0.7,0 1.4,-0.1 2.1,-0.4 0.7,-0.3 1.3,-0.7 1.8,-1.2 0.5,-0.5 0.9,-1.1 1.2,-1.8 0.3,-0.7 0.4,-1.4 0.4,-2.1 0,-2.8 -2,-4.8 -3.8,-5.5 -4.3,-1.7 -9.3,-4.3 -11.8,-6.3 -1.1,-0.9 -2.4,-1.4 -3.7,-1.4 z m 27.6,10.5 c -2.7,0 -4.7,2 -4.7,4.7 0,2.7 2,4.7 4.7,4.7 2.7,0 4.7,-2 4.7,-4.7 -0.1,-2.7 -2.1,-4.7 -4.7,-4.7 z m 0.1,-124.1 c -47.9,0 -83.9,36.8 -83.9,82 0,18.1 5.8,38.8 12.1,46.4 1.5,1.8 3.2,3.2 5.7,3.2 3.8,0 6.7,-2.8 6.7,-6.7 0,-1.2 -0.5,-2.7 -1,-3.5 -1.5,-2.2 1,-3.7 2.2,-1.7 1,1.7 3.3,3.3 6,3.3 3.5,0 6.3,-3 6.3,-6.3 0,-1.3 -0.4,-2.5 -1,-3.7 -1.7,-2.7 1,-3.7 2,-2 1.3,2.2 3.7,3.5 6,3.5 1.7,0 3.4,-0.7 4.6,-1.9 1.2,-1.2 1.9,-2.9 1.9,-4.6 0,-1.2 -0.3,-2.5 -0.8,-3.3 -3.7,-6.5 -5.3,-13.1 -5.3,-20.6 0,-23.8 16.5,-40.9 38.4,-40.9 18,0 32.3,11.5 36.9,28.5 l 43.1,-14 c -10.5,-34.2 -41.4,-57.7 -79.9,-57.7 z m 55.9,125.5 c 3.5,0 6.2,-2.7 6.2,-6.2 0,-1.6 -0.6,-3.1 -1.7,-4.3 -1.3,-1.5 -5.2,-4.8 -7.5,-6.8 -1.3,-1.2 -3,-1.3 -3.8,-1.3 -3.5,0 -6.2,2.7 -6.2,6.2 0,1.7 1,3.8 2.3,4.8 2,1.5 5.5,4.8 6.3,5.7 1.3,1 3.1,1.9 4.4,1.9 z M 377,366.6 c 3.2,0 5.5,-2.3 5.5,-5.5 0,-2.3 -1.3,-4 -3.2,-5 -1.2,-0.7 -3.5,-1.5 -5.2,-2.2 -1.2,-0.5 -1.3,-0.5 -1.7,-0.5 -4,0 -5.8,2.8 -5.8,5.3 0,2.7 1.8,4.7 3.3,5.3 4.2,1.7 3.3,1.5 4.5,2 0.8,0.4 2,0.6 2.6,0.6 z m -20.3,-7.5 c 3.2,0.5 6,-1.3 6,-4.7 0,-1.2 -0.4,-2.4 -1.2,-3.3 -0.8,-0.9 -1.8,-1.6 -3,-1.8 -1.2,-0.3 -2.4,-0.4 -3.7,-0.5 -2.8,0 -5,2 -5,4.8 0,2.3 1.8,4.5 4.2,5 1.1,0.1 2.2,0.3 2.7,0.5 z m 26.5,32.1 c 3.3,0 5.8,-2.5 5.8,-5.8 0,-2 -1,-3.8 -1.8,-4.7 -1,-1 -7.5,-6 -8.8,-6.8 -1.1,-0.6 -2.4,-1 -3.7,-1 -3,0 -5.7,2.5 -5.7,5.7 0,2.2 1.2,4.3 2.7,5.3 2.2,1.3 5.3,3.8 7.3,5.7 1.4,1.1 2.7,1.6 4.2,1.6 z m -41.9,-34.3 c 2.7,0 4.7,-2 4.7,-4.7 0,-2.7 -2,-4.7 -4.7,-4.7 -2.7,0 -4.7,2 -4.7,4.7 0,2.7 2,4.7 4.7,4.7 z m 17.3,20.1 c 4.3,1 7,-1.2 7,-4.7 0,-2.8 -1.7,-4.8 -3.8,-5.5 -3.7,-1.2 -5,-1.5 -6,-1.5 -2.8,0 -5.3,2.2 -5.3,5.3 0,2.5 1.5,4.3 4.2,5.2 4.5,1.4 3.5,1.2 3.9,1.2 z m -17.3,-3.1 c 2.7,0 4.7,-2 4.7,-4.7 0,-2.7 -2,-4.7 -4.7,-4.7 -2.7,0 -4.7,2 -4.7,4.7 0,2.7 2,4.7 4.7,4.7 z m 27.6,27.4 c 3,0 5.5,-2.5 5.5,-5.7 0,-1.7 -1,-3.5 -2.2,-4.5 -2.3,-2 -10.3,-6.7 -15.3,-8.2 -0.6,-0.2 -1.2,-0.3 -1.8,-0.3 -0.7,0 -1.4,0.1 -2.1,0.4 -0.7,0.3 -1.3,0.7 -1.8,1.2 -0.5,0.5 -0.9,1.1 -1.2,1.8 -0.3,0.7 -0.4,1.4 -0.4,2.1 0,2.8 2,4.8 3.8,5.5 4.3,1.7 9.3,4.3 11.8,6.3 1,1 2.3,1.4 3.7,1.4 z m -27.6,-10.5 c 2.7,0 4.7,-2 4.7,-4.7 0,-2.7 -2,-4.7 -4.7,-4.7 -2.7,0 -4.7,2 -4.7,4.7 0,2.7 2,4.7 4.7,4.7 z M 341.1,515 c 47.9,0 83.9,-36.8 83.9,-82 0,-18.1 -5.8,-38.8 -12.1,-46.4 -1.5,-1.8 -3.2,-3.2 -5.7,-3.2 -3.8,0 -6.7,2.8 -6.7,6.7 0,1.2 0.5,2.7 1,3.5 1.5,2.2 -1,3.7 -2.2,1.7 -1,-1.7 -3.3,-3.3 -6,-3.3 -3.5,0 -6.3,3 -6.3,6.3 0,1.3 0.4,2.5 1,3.7 1.7,2.7 -1,3.7 -2,2 -1.3,-2.2 -3.7,-3.5 -6,-3.5 -1.7,0 -3.4,0.7 -4.6,1.9 -1.2,1.2 -1.9,2.9 -1.9,4.6 0,1.2 0.3,2.5 0.8,3.3 3.7,6.5 5.3,13.1 5.3,20.6 0,23.8 -16.5,40.9 -38.4,40.9 -18,0 -32.3,-11.5 -36.9,-28.5 l -43.1,14 c 10.5,34.2 41.5,57.7 79.9,57.7 z"
   id="path1" />
		</g>
	</g>
</g>
<g
   id="logotype"
   transform="translate(-257.5,-257.4)">
</g>
<g
   id="Layer_4"
   transform="translate(-257.5,-257.4)">
</g>
</svg>
